<svg id="Group_53902" data-name="Group 53902" xmlns="http://www.w3.org/2000/svg" width="245.759" height="67" viewBox="0 0 245.759 67">
  <g id="Group_50912" data-name="Group 50912" transform="translate(80.163 16.649)">
    <g id="Group_50911" data-name="Group 50911">
      <g id="Group_50910" data-name="Group 50910">
        <g id="Group_50909" data-name="Group 50909">
          <path id="Path_101617" data-name="Path 101617" d="M-1587.567-1130.056c0,5.539-3.468,10.933-11.174,10.933h-6.119v11.27h-7.561v-33.187h13.68C-1591.034-1141.037-1587.567-1135.547-1587.567-1130.056Zm-7.609,0c0-2.119-1.061-4.382-3.853-4.382h-5.827v8.718h5.779C-1596.237-1125.719-1595.176-1127.937-1595.176-1130.056Z" transform="translate(1612.42 1141.04)"/>
          <path id="Path_101618" data-name="Path 101618" d="M-1498.35-1106.8v22.494h-7.08v-2.891a9.021,9.021,0,0,1-7.177,3.468c-5.346,0-10.693-4.336-10.693-11.8,0-6.936,5.3-11.85,10.837-11.85a8.684,8.684,0,0,1,7.032,3.324v-2.747h7.08Zm-7.372,11.27a5.18,5.18,0,0,0-5.154-5.25,5.1,5.1,0,0,0-5.2,5.25,5.147,5.147,0,0,0,5.2,5.2A5.231,5.231,0,0,0-1505.722-1095.53Z" transform="translate(1550.083 1117.496)"/>
          <path id="Path_101619" data-name="Path 101619" d="M-1424.74-1095.626c0-7.128,5.827-11.754,12.379-11.754a11.571,11.571,0,0,1,9.827,5.3l-5.49,3.468a5.455,5.455,0,0,0-4.286-2.167,4.967,4.967,0,0,0-5.2,5.154,5.055,5.055,0,0,0,5.2,5.3,5.447,5.447,0,0,0,4.286-2.167l5.49,3.468a11.564,11.564,0,0,1-9.827,5.3C-1418.913-1083.729-1424.74-1088.5-1424.74-1095.626Z" transform="translate(1481.143 1117.496)"/>
          <path id="Path_101620" data-name="Path 101620" d="M-1318.356-1093.45h-16.424c.673,2.167,2.552,3.516,5.25,3.516a8.64,8.64,0,0,0,5.683-2.311l3.66,4.625a13.814,13.814,0,0,1-9.875,3.9c-7.08,0-12.138-4.914-12.138-11.753,0-7.321,5.683-11.9,12.138-11.9,6.407,0,11.85,4.529,11.85,11.369C-1318.212-1095.379-1318.26-1094.559-1318.356-1093.45Zm-6.984-4.193c-.048-2.215-2.022-3.708-4.577-3.708a4.738,4.738,0,0,0-4.914,3.708Z" transform="translate(1423.409 1117.489)"/>
          <path id="Path_101621" data-name="Path 101621" d="M-1227.25-1107.843l-9.779-13.007v13.007h-7.561v-33.187h7.561v13.391l8.622-13.391h9.007l-11.029,16.424,12.86,16.763Z" transform="translate(1355.133 1141.033)"/>
          <path id="Path_101622" data-name="Path 101622" d="M-1119.918-1117.382c0,4.529-2.939,9.539-10.741,9.539h-14.4v-33.187h13.44c6.071,0,9.971,3.66,9.971,8.574,0,2.311-.869,5.779-4.673,6.888C-1121.941-1124.943-1119.918-1121.186-1119.918-1117.382Zm-17.581-17.052v6.359h5.3a2.864,2.864,0,0,0,2.987-3.18c0-1.686-.866-3.179-2.939-3.179Zm9.968,16.282a3.705,3.705,0,0,0-4.045-3.708h-5.923v7.417h5.923A3.71,3.71,0,0,0-1127.53-1118.151Z" transform="translate(1285.515 1141.033)"/>
        </g>
      </g>
    </g>
  </g>
  <g id="Group_50913" data-name="Group 50913">
    <rect id="Rectangle_16522" data-name="Rectangle 16522" width="13.89" height="13.455" transform="translate(27.451 35.547) rotate(-74.026)" fill="#0040ff"/>
    <path id="Path_101623" data-name="Path 101623" d="M-1816.22-1149.967l-7.23,25.262a5.506,5.506,0,0,1,3.18-.475l7.883-27.54A3.806,3.806,0,0,0-1816.22-1149.967Z" transform="translate(1840.193 1165.862)" fill="#0040ff"/>
    <path id="Path_101624" data-name="Path 101624" d="M-1830.835-1196.44h-29.65a18.675,18.675,0,0,0-18.675,18.675v29.65a18.674,18.674,0,0,0,18.675,18.675h29.65a18.674,18.674,0,0,0,18.675-18.675v-29.65A18.672,18.672,0,0,0-1830.835-1196.44Zm4.92,21.794-8.042,28.1-1.842-.529.006-.027-23.252-6.657a3.639,3.639,0,0,0-4.5,2.494l-.021.066a3.806,3.806,0,0,0,2.44,4.2.984.984,0,0,0,.165.066l15.5,4.436-.526,1.836-15.405-4.409a5.73,5.73,0,0,1-4.054-6.53v0c.036-.18.075-.361.129-.541l8.279-28.935a5.736,5.736,0,0,1,6.215-4.105,6.23,6.23,0,0,1,.859.177l14.191,4.063-1.716,5.993,4.8-1.954,3.044,4.2,1.713-5.978A3.357,3.357,0,0,1-1825.916-1174.646Z" transform="translate(1879.16 1196.44)" fill="#0040ff"/>
  </g>
</svg>
